# xmcd
#
# Track frame offsets: 
#        150
#        23080
#        44614
#        69836
#        91714
#        113552
#        139152
#        160952
#        178192
#        198043
#        216969
#        234271
#
# Disc length: 3406 seconds
#
# Revision: 0
# Processed by: cddbd v1.5.2PL0 Copyright (c) Steve Scherf et al.
# Submitted via: ExactAudioCopyFreeDBPlugin 1.0
#
DISCID=980d4c0c
DTITLE=Zed Mitchell - Wow
DYEAR=2018
DGENRE=Blues
TTITLE0=Black Swan
TTITLE1=You are not alone
TTITLE2=Now is our time
TTITLE3=Wonderland
TTITLE4=Take it on the chin
TTITLE5=The train has gone
TTITLE6=Living a lie
TTITLE7=Once
TTITLE8=Home is with you
TTITLE9=Listen to your heart
TTITLE10=Tomorrow
TTITLE11=The man in my mind
EXTD=
EXTT0=
EXTT1=
EXTT2=
EXTT3=
EXTT4=
EXTT5=
EXTT6=
EXTT7=
EXTT8=
EXTT9=
EXTT10=
EXTT11=
PLAYORDER=
